<svg width="24" height="24" viewBox="0 0 24 24" fill="none" xmlns="http://www.w3.org/2000/svg">
<path d="M6.23438 20.6251C5.94657 20.6246 5.66387 20.5491 5.41406 20.4062C4.85156 20.0874 4.50188 19.4687 4.50188 18.797V5.20321C4.50188 4.52961 4.85156 3.91274 5.41406 3.59399C5.66982 3.44701 5.96035 3.37142 6.25531 3.37513C6.55027 3.37884 6.83881 3.46171 7.09078 3.61508L18.7088 10.5695C18.9509 10.7213 19.1505 10.9321 19.2888 11.1822C19.4272 11.4322 19.4998 11.7134 19.4998 11.9991C19.4998 12.2849 19.4272 12.566 19.2888 12.8161C19.1505 13.0662 18.9509 13.277 18.7088 13.4288L7.08891 20.3851C6.83105 20.541 6.5357 20.6239 6.23438 20.6251Z" fill="white"/>
</svg>
